<svg xmlns="http://www.w3.org/2000/svg" viewBox="0 0 400 240" role="img" aria-label="Chemical space lattice" preserveAspectRatio="xMidYMid slice">
  <defs>
    <linearGradient id="space-bg" x1="0%" y1="0%" x2="100%" y2="100%">
      <stop offset="0%" stop-color="#040506"/>
      <stop offset="45%" stop-color="#0a0c10"/>
      <stop offset="100%" stop-color="#181f28"/>
    </linearGradient>
    <linearGradient id="lattice-line" x1="0%" y1="0%" x2="100%" y2="0%">
      <stop offset="0%" stop-color="#e0b020" stop-opacity="0"/>
      <stop offset="35%" stop-color="#e0b020" stop-opacity="0.35"/>
      <stop offset="65%" stop-color="#9aa8ba" stop-opacity="0.45"/>
      <stop offset="100%" stop-color="#9aa8ba" stop-opacity="0"/>
    </linearGradient>
    <radialGradient id="sulfur-halo" cx="50%" cy="35%" r="45%">
      <stop offset="0%" stop-color="#e0b020" stop-opacity="0.18"/>
      <stop offset="100%" stop-color="#e0b020" stop-opacity="0"/>
    </radialGradient>
  </defs>
  <rect width="400" height="240" fill="url(#space-bg)"/>
  <rect width="400" height="240" fill="url(#sulfur-halo)"/>
  <g opacity="0.65" stroke="url(#lattice-line)" stroke-width="1.25" fill="none">
    <line x1="0" y1="180" x2="400" y2="120"/>
    <line x1="0" y1="200" x2="400" y2="140"/>
    <line x1="0" y1="220" x2="400" y2="160"/>
    <line x1="50" y1="240" x2="200" y2="80"/>
    <line x1="150" y1="240" x2="300" y2="80"/>
    <line x1="250" y1="240" x2="400" y2="80"/>
    <line x1="100" y1="240" x2="250" y2="60"/>
    <line x1="200" y1="240" x2="350" y2="60"/>
  </g>
  <circle cx="200" cy="100" r="14" fill="#e0b020" opacity="0.22"/>
  <circle cx="200" cy="100" r="7" fill="#f0d060"/>
  <circle cx="200" cy="100" r="3" fill="#eef1f4"/>
  <circle cx="120" cy="140" r="6" fill="#9aa8ba" opacity="0.75"/>
  <circle cx="280" cy="130" r="6" fill="#9aa8ba" opacity="0.75"/>
  <circle cx="160" cy="170" r="5" fill="#9aa8ba" opacity="0.55"/>
  <circle cx="240" cy="165" r="5" fill="#9aa8ba" opacity="0.55"/>
  <path d="M 170 95 Q 200 72 230 95" fill="none" stroke="#f0d060" stroke-width="2.25" stroke-dasharray="6 4" opacity="0.9"/>
</svg>
